<svg version="1.1" id="Layer_1" xmlns="http://www.w3.org/2000/svg" xmlns:xlink="http://www.w3.org/1999/xlink" x="0px" y="0px"
	 width="100%" viewBox="0 0 1024 1024" enable-background="new 0 0 1024 1024" xml:space="preserve">
<path fill="#0A0A0A" opacity="1.000000" stroke="none" 
	d="
M450.000000,1025.000000 
	C300.000000,1025.000000 150.500000,1025.000000 1.000000,1025.000000 
	C1.000000,683.666687 1.000000,342.333344 1.000000,1.000000 
	C342.333344,1.000000 683.666687,1.000000 1025.000000,1.000000 
	C1025.000000,342.333344 1025.000000,683.666687 1025.000000,1025.000000 
	C833.500000,1025.000000 642.000000,1025.000000 450.000000,1025.000000 
M426.292084,491.267578 
	C426.833008,491.899506 427.368774,492.536011 427.915680,493.162689 
	C432.788422,498.746155 432.803436,499.770935 428.042542,505.237244 
	C427.276794,506.116486 426.482056,506.971985 425.673828,507.812622 
	C393.341248,541.441772 361.021606,575.083374 328.665558,608.689880 
	C300.703583,637.732544 272.695068,666.730286 244.728790,695.768677 
	C243.335968,697.214905 242.148804,698.859192 240.583420,700.752991 
	C275.882538,700.752991 310.209503,700.643066 344.534729,700.839905 
	C351.968506,700.882507 358.736938,699.155273 364.765625,695.174683 
	C369.445068,692.085022 373.917999,688.489380 377.855743,684.499695 
	C414.724762,647.145020 451.578217,609.773376 488.199585,572.176208 
	C529.699951,529.570068 570.903748,486.675201 612.336121,444.002594 
	C649.244141,405.989685 686.291077,368.111694 723.261780,330.159607 
	C724.777405,328.603821 726.141846,326.900757 727.795532,325.017090 
	C688.261353,325.017090 649.600952,325.232269 610.946594,324.844238 
	C602.742004,324.761902 596.445679,327.324829 590.897705,332.832886 
	C588.770386,334.944885 586.629700,337.045105 584.555115,339.208282 
	C555.264465,369.750854 525.998962,400.317535 496.685883,430.838593 
	C492.178375,435.531860 489.604553,435.454132 485.128693,430.525696 
	C468.336151,412.035339 451.646973,393.451080 434.837952,374.975769 
	C422.285797,361.179352 409.660004,347.448944 396.964233,333.784607 
	C391.308167,327.697021 384.665314,324.697540 375.827515,324.830811 
	C344.172150,325.308105 312.505249,325.018066 280.842712,325.018219 
	C279.326508,325.018219 277.810303,325.018219 275.588074,325.018219 
	C294.255707,345.737854 312.233276,365.814850 330.346466,385.768677 
	C362.134857,420.787323 394.006317,455.730591 426.292084,491.267578 
M729.197266,623.748962 
	C732.815735,605.329041 731.264160,587.055603 727.514221,568.872925 
	C722.694397,545.502319 708.890137,527.634094 691.411621,512.550354 
	C677.737732,500.749878 661.567017,493.210907 643.293518,492.185211 
	C625.506470,491.186798 607.653564,491.343018 589.828186,491.090576 
	C588.525513,491.072083 586.823181,491.460419 585.960144,492.317535 
	C569.065674,509.095917 552.245117,525.949097 535.466064,542.843201 
	C530.836426,547.504517 526.389648,552.347412 521.024292,557.983948 
	C523.922852,557.983948 525.520020,557.983948 527.117249,557.983887 
	C560.608582,557.983521 594.100830,557.836853 627.591064,558.027588 
	C656.019104,558.189514 676.123413,587.268555 666.554077,614.002014 
	C659.630249,633.344666 643.540344,644.122009 620.865356,643.883423 
	C582.882019,643.483826 544.899597,642.867981 506.922760,642.063904 
	C498.050781,641.876038 490.886688,644.404785 484.627411,650.806213 
	C469.252045,666.530823 453.576691,681.962036 438.028503,697.517822 
	C437.060272,698.486511 436.148315,699.511536 434.892303,700.848694 
	C455.549164,700.848694 475.515289,700.930847 495.480560,700.832336 
	C543.295898,700.596497 591.122375,700.807312 638.920898,699.761902 
	C662.349548,699.249512 683.365540,690.992493 701.067566,674.698547 
	C716.023193,660.932617 725.582092,644.571716 729.197266,623.748962 
z"/>
<path fill="#FEFEFE" opacity="1.000000" stroke="none" 
	d="
M426.067535,490.986511 
	C394.006317,455.730591 362.134857,420.787323 330.346466,385.768677 
	C312.233276,365.814850 294.255707,345.737854 275.588074,325.018219 
	C277.810303,325.018219 279.326508,325.018219 280.842712,325.018219 
	C312.505249,325.018066 344.172150,325.308105 375.827515,324.830811 
	C384.665314,324.697540 391.308167,327.697021 396.964233,333.784607 
	C409.660004,347.448944 422.285797,361.179352 434.837952,374.975769 
	C451.646973,393.451080 468.336151,412.035339 485.128693,430.525696 
	C489.604553,435.454132 492.178375,435.531860 496.685883,430.838593 
	C525.998962,400.317535 555.264465,369.750854 584.555115,339.208282 
	C586.629700,337.045105 588.770386,334.944885 590.897705,332.832886 
	C596.445679,327.324829 602.742004,324.761902 610.946594,324.844238 
	C649.600952,325.232269 688.261353,325.017090 727.795532,325.017090 
	C726.141846,326.900757 724.777405,328.603821 723.261780,330.159607 
	C686.291077,368.111694 649.244141,405.989685 612.336121,444.002594 
	C570.903748,486.675201 529.699951,529.570068 488.199585,572.176208 
	C451.578217,609.773376 414.724762,647.145020 377.855743,684.499695 
	C373.917999,688.489380 369.445068,692.085022 364.765625,695.174683 
	C358.736938,699.155273 351.968506,700.882507 344.534729,700.839905 
	C310.209503,700.643066 275.882538,700.752991 240.583420,700.752991 
	C242.148804,698.859192 243.335968,697.214905 244.728790,695.768677 
	C272.695068,666.730286 300.703583,637.732544 328.665558,608.689880 
	C361.021606,575.083374 393.341248,541.441772 425.673828,507.812622 
	C426.482056,506.971985 427.276794,506.116486 428.042542,505.237244 
	C432.803436,499.770935 432.788422,498.746155 427.915680,493.162689 
	C427.368774,492.536011 426.833008,491.899506 426.067535,490.986511 
z"/>
<path fill="#FEFEFE" opacity="1.000000" stroke="none" 
	d="
M729.115356,624.170288 
	C725.582092,644.571716 716.023193,660.932617 701.067566,674.698547 
	C683.365540,690.992493 662.349548,699.249512 638.920898,699.761902 
	C591.122375,700.807312 543.295898,700.596497 495.480560,700.832336 
	C475.515289,700.930847 455.549164,700.848694 434.892303,700.848694 
	C436.148315,699.511536 437.060272,698.486511 438.028503,697.517822 
	C453.576691,681.962036 469.252045,666.530823 484.627411,650.806213 
	C490.886688,644.404785 498.050781,641.876038 506.922760,642.063904 
	C544.899597,642.867981 582.882019,643.483826 620.865356,643.883423 
	C643.540344,644.122009 659.630249,633.344666 666.554077,614.002014 
	C676.123413,587.268555 656.019104,558.189514 627.591064,558.027588 
	C594.100830,557.836853 560.608582,557.983521 527.117249,557.983887 
	C525.520020,557.983948 523.922852,557.983948 521.024292,557.983948 
	C526.389648,552.347412 530.836426,547.504517 535.466064,542.843201 
	C552.245117,525.949097 569.065674,509.095917 585.960144,492.317535 
	C586.823181,491.460419 588.525513,491.072083 589.828186,491.090576 
	C607.653564,491.343018 625.506470,491.186798 643.293518,492.185211 
	C661.567017,493.210907 677.737732,500.749878 691.411621,512.550354 
	C708.890137,527.634094 722.694397,545.502319 727.514221,568.872925 
	C731.264160,587.055603 732.815735,605.329041 729.115356,624.170288 
z"/>
</svg>